<svg xmlns="http://www.w3.org/2000/svg" width="42.127" height="42.127" viewBox="0 0 42.127 42.127"><defs><style>.a{fill:#fff;}</style></defs><path d="M251.608,80.646a21.064,21.064,0,1,0-24.355,20.808V86.735h-5.347V80.646h5.347v-4.64c0-5.278,3.145-8.2,7.956-8.2a32.338,32.338,0,0,1,4.715.412v5.183h-2.656c-2.616,0-3.433,1.624-3.433,3.29v3.95h5.842l-.934,6.089h-4.908v14.719A21.069,21.069,0,0,0,251.608,80.646Z" transform="translate(-209.481 -59.583)"/><path class="a" d="M234.944,84.219l.934-6.089h-5.842V74.18c0-1.667.817-3.29,3.433-3.29h2.656V65.706a32.338,32.338,0,0,0-4.715-.412c-4.812,0-7.956,2.917-7.956,8.2v4.64h-5.347v6.089h5.347V98.938a21.248,21.248,0,0,0,6.582,0V84.219Z" transform="translate(-205.681 -57.067)"/></svg>