<svg xmlns="http://www.w3.org/2000/svg" width="42.127" height="42.127" viewBox="0 0 42.127 42.127"><defs><style>.a{fill:#fff;}</style></defs><ellipse cx="21.063" cy="21.063" rx="21.063" ry="21.063" transform="translate(0 0)"/><path class="a" d="M218.07,158.481h4.08v13.105h-4.08Zm2.04-6.511a2.362,2.362,0,1,1-2.364,2.36,2.361,2.361,0,0,1,2.364-2.36" transform="translate(-205.84 -141.341)"/><path class="a" d="M222.577,156.589h3.907v1.794h.053a4.285,4.285,0,0,1,3.858-2.118c4.124,0,4.885,2.713,4.885,6.242v7.187h-4.071v-6.37c0-1.521-.03-3.476-2.118-3.476-2.119,0-2.443,1.655-2.443,3.364v6.483h-4.071Z" transform="translate(-203.711 -139.449)"/></svg>