<svg xmlns="http://www.w3.org/2000/svg" width="42.127" height="42.127" viewBox="0 0 42.127 42.127"><defs><style>.a{fill:#fff;}</style></defs><ellipse cx="21.064" cy="21.063" rx="21.064" ry="21.063" transform="translate(0 0)"/><path class="a" d="M324.132,69.907a9.524,9.524,0,0,1-2.324.663c.373-.062.922-.739,1.142-1.013a4.273,4.273,0,0,0,.771-1.406c.02-.04.035-.091,0-.121a.133.133,0,0,0-.124.01,11.864,11.864,0,0,1-2.754,1.055.184.184,0,0,1-.19-.05,2.174,2.174,0,0,0-.241-.246,4.872,4.872,0,0,0-1.334-.817,4.646,4.646,0,0,0-2.047-.33,4.884,4.884,0,0,0-1.942.549,5,5,0,0,0-1.566,1.279,4.8,4.8,0,0,0-.935,1.873,5.051,5.051,0,0,0-.049,1.978c.014.111,0,.125-.1.111a14.72,14.72,0,0,1-9.466-4.817c-.109-.127-.17-.127-.261.009a4.8,4.8,0,0,0,.818,5.672c.186.176.376.352.582.511a4.824,4.824,0,0,1-1.827-.511c-.111-.071-.166-.03-.176.1a2.917,2.917,0,0,0,.03.542,4.853,4.853,0,0,0,2.991,3.869,2.8,2.8,0,0,0,.608.186,5.409,5.409,0,0,1-1.792.055c-.131-.024-.18.04-.131.166a5.041,5.041,0,0,0,3.764,3.152c.17.03.341.03.513.071-.01.014-.022.014-.03.03-.423.644-1.889,1.124-2.571,1.361a9.2,9.2,0,0,1-3.9.5c-.21-.03-.255-.029-.311,0s-.007.086.06.14c.265.176.536.331.813.483A12.918,12.918,0,0,0,304.761,86a13.9,13.9,0,0,0,13.494-3.155c2.765-2.749,3.734-6.537,3.734-10.33,0-.148.176-.23.279-.308a9.169,9.169,0,0,0,1.837-1.91.586.586,0,0,0,.121-.366v-.02C324.226,69.846,324.224,69.865,324.132,69.907Z" transform="translate(-291.43 -56.061)"/></svg>